<svg xmlns="http://www.w3.org/2000/svg" width="900" height="560"><defs><marker id="a" markerWidth="10" markerHeight="10" refX="8" refY="3" orient="auto"><path d="M0,0 L0,6 L9,3 z" fill="#17324d"/></marker></defs><rect width="900" height="560" fill="#fff"/><rect x="24" y="22" width="852" height="516" rx="18" fill="#f7fbfb" stroke="#0f766e" stroke-width="3"/><text x="50" y="70" font-family="Arial" font-size="18" font-weight="700" fill="#17324d">Sosiologi • Masyarakat multikultural • Seri 17</text><line x1="100" y1="390" x2="805" y2="390" stroke="#17324d" stroke-width="3"/><rect x="140" y="234" width="88" height="156" fill="#0f766e"/><text x="184" y="415" text-anchor="middle" font-family="Arial" font-size="14">A</text><text x="184" y="224" text-anchor="middle" font-family="Arial" font-size="13">52</text><rect x="305" y="177" width="88" height="213" fill="#0f766e"/><text x="349" y="415" text-anchor="middle" font-family="Arial" font-size="14">B</text><text x="349" y="167" text-anchor="middle" font-family="Arial" font-size="13">71</text><rect x="470" y="255" width="88" height="135" fill="#0f766e"/><text x="514" y="415" text-anchor="middle" font-family="Arial" font-size="14">C</text><text x="514" y="245" text-anchor="middle" font-family="Arial" font-size="13">45</text><rect x="635" y="153" width="88" height="237" fill="#0f766e"/><text x="679" y="415" text-anchor="middle" font-family="Arial" font-size="14">D</text><text x="679" y="143" text-anchor="middle" font-family="Arial" font-size="13">79</text><rect x="55" y="440" width="790" height="58" rx="8" fill="#fff" stroke="#b8d8d2"/><text x="72" y="463" font-family="Arial" font-size="13" fill="#17324d">Konteks: Festival warga U9 melibatkan berbagai etnis dan agama. Setiap kelompok mempertahankan identita</text><text x="72" y="486" font-family="Arial" font-size="13" fill="#17324d">Tugas: Prinsip yang paling tampak adalah ...</text><text x="50" y="525" font-family="Arial" font-size="13" fill="#667085">Visual orisinal bank soal TKA Sosiologi</text><text x="830" y="525" text-anchor="end" font-family="Arial" font-size="13">SOS-AST-0125</text></svg>