<svg xmlns="http://www.w3.org/2000/svg" width="900" height="560"><defs><marker id="a" markerWidth="10" markerHeight="10" refX="8" refY="3" orient="auto"><path d="M0,0 L0,6 L9,3 z" fill="#17324d"/></marker></defs><rect width="900" height="560" fill="#fff"/><rect x="24" y="22" width="852" height="516" rx="18" fill="#f7fbfb" stroke="#0f766e" stroke-width="3"/><text x="50" y="70" font-family="Arial" font-size="18" font-weight="700" fill="#17324d">Sosiologi • Pembentukan kepribadian, kelompok dan lembaga sosial • Seri 76</text><line x1="100" y1="390" x2="805" y2="390" stroke="#17324d" stroke-width="3"/><rect x="140" y="282" width="88" height="108" fill="#0f766e"/><text x="184" y="415" text-anchor="middle" font-family="Arial" font-size="14">A</text><text x="184" y="272" text-anchor="middle" font-family="Arial" font-size="13">36</text><rect x="305" y="186" width="88" height="204" fill="#0f766e"/><text x="349" y="415" text-anchor="middle" font-family="Arial" font-size="14">B</text><text x="349" y="176" text-anchor="middle" font-family="Arial" font-size="13">68</text><rect x="470" y="288" width="88" height="102" fill="#0f766e"/><text x="514" y="415" text-anchor="middle" font-family="Arial" font-size="14">C</text><text x="514" y="278" text-anchor="middle" font-family="Arial" font-size="13">34</text><rect x="635" y="189" width="88" height="201" fill="#0f766e"/><text x="679" y="415" text-anchor="middle" font-family="Arial" font-size="14">D</text><text x="679" y="179" text-anchor="middle" font-family="Arial" font-size="13">67</text><rect x="55" y="440" width="790" height="58" rx="8" fill="#fff" stroke="#b8d8d2"/><text x="72" y="463" font-family="Arial" font-size="13" fill="#17324d">Konteks: Kebiasaan antre di layanan publik L38 mula-mula diperkenalkan, kemudian diterima sebagai norma</text><text x="72" y="486" font-family="Arial" font-size="13" fill="#17324d">Tugas: Proses yang tergambar adalah ...</text><text x="50" y="525" font-family="Arial" font-size="13" fill="#667085">Visual orisinal bank soal TKA Sosiologi</text><text x="830" y="525" text-anchor="end" font-family="Arial" font-size="13">SOS-AST-0098</text></svg>