<svg xmlns="http://www.w3.org/2000/svg" width="900" height="560"><defs><marker id="a" markerWidth="10" markerHeight="10" refX="8" refY="3" orient="auto"><path d="M0,0 L0,6 L9,3 z" fill="#17324D"/></marker></defs><rect width="900" height="560" fill="#FFF"/><rect x="24" y="22" width="852" height="516" rx="18" fill="#F7FBFB" stroke="#0F766E" stroke-width="3"/><text x="50" y="70" font-family="Arial" font-size="18" font-weight="700" fill="#17324D">Sejarah - Pergerakan Nasional sampai Proklamasi Kemerdekaan - Seri 15</text><path d="M90 210 q70 -55 145 0 q-65 75 -145 0z" fill="#78C6A3" stroke="#17324D" stroke-width="2"/><text x="165" y="218" text-anchor="middle" font-family="Arial" font-size="16" font-weight="700">Barat</text><path d="M360 265 q70 -55 145 0 q-65 75 -145 0z" fill="#F4C66D" stroke="#17324D" stroke-width="2"/><text x="435" y="273" text-anchor="middle" font-family="Arial" font-size="16" font-weight="700">Tengah</text><path d="M630 210 q70 -55 145 0 q-65 75 -145 0z" fill="#78C6A3" stroke="#17324D" stroke-width="2"/><text x="705" y="218" text-anchor="middle" font-family="Arial" font-size="16" font-weight="700">Timur</text><rect x="55" y="420" width="790" height="75" rx="8" fill="#FFF" stroke="#B8D8D2"/><text x="72" y="449" font-family="Arial" font-size="13" fill="#17324D">Konteks: Perlawanan PETA Blitar dan gerakan rakyat muncul di tengah pengawasan ketat. Dokumen kajian…</text><text x="72" y="478" font-family="Arial" font-size="13" fill="#17324D">Tugas: Faktor pendorong perlawanan adalah ...</text><text x="50" y="525" font-family="Arial" font-size="13" fill="#667085">Visual orisinal bank soal TKA Sejarah</text><text x="830" y="525" text-anchor="end" font-family="Arial" font-size="13">SEJ-AST-0217</text></svg>